<?xml version="1.0" encoding="iso-8859-1"?>
<!-- Generator: Adobe Illustrator 19.0.0, SVG Export Plug-In . SVG Version: 6.00 Build 0)  -->
<svg version="1.1" id="Capa_1" xmlns="http://www.w3.org/2000/svg" xmlns:xlink="http://www.w3.org/1999/xlink" x="0px" y="0px"
	 viewBox="0 0 512 512" style="enable-background:new 0 0 512 512;" xml:space="preserve">
<path style="fill:#994C0F;" d="M446,336H66c-16.57,0-30,13.43-30,30s13.43,30,30,30h380c16.57,0,30-13.43,30-30S462.57,336,446,336z
	"/>
<path style="fill:#85E374;" d="M482,296H30c-11.05,0-20,8.95-20,20s8.95,20,20,20h452c11.05,0,20-8.95,20-20S493.05,296,482,296z"/>
<path style="fill:#FD6244;" d="M446,236c16.57,0,30,13.43,30,30c0,16.56-13.44,30-30,30c-19.108,0-360.97,0-380,0
	c-16.57,0-30-13.43-30-30c0-16.56,13.44-30,30-30H446z"/>
<g>
	<path style="fill:#FEA832;" d="M456,396v20c0,22.09-17.91,40-40,40H96c-22.09,0-40-17.91-40-40v-20C100.908,396,411.09,396,456,396
		z"/>
	<path style="fill:#FEA832;" d="M455.88,234.9L456,236h-10H66H56l0.12-1.1C67.44,133.05,153.53,56,256,56
		C358.465,56,444.559,133.047,455.88,234.9z"/>
</g>
<path style="fill:#FED42D;" d="M396,296c-1.662,1.247,5.32-3.99-80,60c-85.32-63.99-78.338-58.753-80-60H396z"/>
<path d="M256,126c-5.52,0-10,4.48-10,10s4.48,10,10,10c5.52,0,10-4.48,10-10S261.52,126,256,126z"/>
<path d="M0,316c0,16.542,13.458,30,30,30h1.381C27.966,351.888,26,358.717,26,366c0,14.773,8.056,27.692,20,34.619V416
	c0,27.57,22.43,50,50,50h320c27.57,0,50-22.43,50-50v-15.381c11.944-6.927,20-19.846,20-34.619c0-7.283-1.966-14.112-5.381-20H482
	c16.542,0,30-13.458,30-30s-13.458-30-30-30h-1.355c3.487-6.016,5.355-12.864,5.355-20c0-14.984-8.287-28.063-20.514-34.915
	c-6.292-50.663-30.609-97.195-68.696-131.276C358.035,65.11,308.035,46,256,46C149.21,46,59.648,125.356,46.518,231.061
	C34.249,237.929,26,250.959,26,266c0,7.283,1.966,14.112,5.381,20H30C13.458,286,0,299.458,0,316z M446,416
	c0,16.542-13.458,30-30,30H96c-16.542,0-30-13.458-30-30v-10h380V416z M446,386H66c-11.028,0-20-8.972-20-20s8.972-20,20-20h220
	l24,18c1.778,1.333,3.889,2,6,2s4.222-0.667,6-2l24-18h100c11.028,0,20,8.972,20,20S457.028,386,446,386z M266,306h100l-50,37.5
	L266,306z M482,306c5.514,0,10,4.486,10,10s-4.486,10-10,10c-13.363,0-97.261,0-109.333,0l26.667-20H482z M256,66
	c47.104,0,92.367,17.299,127.452,48.712c32.583,29.156,54.044,68.373,61.111,111.288H67.435C82.521,134.103,161.874,66,256,66z
	 M66,246h380c11.028,0,20,8.972,20,20c0,11.045-8.954,20-20,20H66c-11.028,0-20-8.972-20-20C46,254.955,54.954,246,66,246z
	 M232.667,306l26.667,20c-11.773,0-219.007,0-229.333,0c-5.514,0-10-4.486-10-10s4.486-10,10-10H232.667z"/>
<path d="M316,106c-5.523,0-10,4.477-10,10v20c0,5.523,4.477,10,10,10s10-4.477,10-10v-20C326,110.477,321.523,106,316,106z"/>
<path d="M356,166c-5.523,0-10,4.477-10,10v20c0,5.523,4.477,10,10,10s10-4.477,10-10v-20C366,170.477,361.523,166,356,166z"/>
<path d="M256,166c-5.523,0-10,4.477-10,10v20c0,5.523,4.477,10,10,10c5.523,0,10-4.477,10-10v-20C266,170.477,261.523,166,256,166z"
	/>
<path d="M196,106c-5.523,0-10,4.477-10,10v20c0,5.523,4.477,10,10,10s10-4.477,10-10v-20C206,110.477,201.523,106,196,106z"/>
<path d="M156,166c-5.523,0-10,4.477-10,10v20c0,5.523,4.477,10,10,10s10-4.477,10-10v-20C166,170.477,161.523,166,156,166z"/>
<g>
</g>
<g>
</g>
<g>
</g>
<g>
</g>
<g>
</g>
<g>
</g>
<g>
</g>
<g>
</g>
<g>
</g>
<g>
</g>
<g>
</g>
<g>
</g>
<g>
</g>
<g>
</g>
<g>
</g>
</svg>
